<svg width="63" height="46" viewBox="0 0 63 46" fill="none" xmlns="http://www.w3.org/2000/svg">
<path d="M52.7497 42.9231L15.4556 42.7939C13.7955 42.7881 12.4419 41.4251 12.4477 39.765C12.4534 38.1049 13.8164 36.7513 15.4765 36.7571L52.7706 36.8863C54.4308 36.892 55.7844 38.255 55.7786 39.9152C55.7729 41.5753 54.4098 42.9289 52.7497 42.9231Z" fill="#008B8C"/>
<path d="M61.8439 31.8854C61.8305 35.759 58.6502 38.9173 54.7765 38.9039L13.8603 38.7621C9.98668 38.7487 6.82839 35.5684 6.84177 31.6947L6.87425 22.3265C6.89871 15.2679 12.6939 9.5127 19.7526 9.53716L49.087 9.63878C56.1456 9.66324 61.9008 15.4585 61.8763 22.5171L61.8439 31.8854Z" fill="#B1FFFF"/>
<path d="M54.243 26.3911C54.2359 28.4322 52.6804 30.1398 50.6477 30.324C39.6454 31.3214 28.2357 31.313 16.4933 30.1952C14.4557 30.0012 12.9009 28.2821 12.908 26.2354L12.9154 24.0897C12.9225 22.055 14.4701 20.3526 16.4954 20.1584C27.9136 19.0639 39.3335 18.9048 50.7563 20.2222C52.7553 20.4527 54.2577 22.1598 54.2508 24.172L54.243 26.3911Z" fill="#37D7D9"/>
<path d="M24.9358 25.2173C24.931 26.604 23.803 27.7242 22.4163 27.7194C21.0297 27.7146 19.9094 26.5866 19.9142 25.1999C19.9191 23.8133 21.0471 22.693 22.4337 22.6978C23.8204 22.7026 24.9407 23.8306 24.9358 25.2173Z" fill="white"/>
<path d="M47.2445 25.2954C47.2397 26.6821 46.1116 27.8023 44.725 27.7976C43.3383 27.7928 42.218 26.6647 42.2228 25.2781C42.2276 23.8914 43.3557 22.7711 44.7424 22.7759C46.1291 22.7807 47.2493 23.9087 47.2445 25.2954Z" fill="white"/>
<path d="M22.4875 28.6991C22.4825 28.6159 22.5444 28.5464 22.625 28.5414C22.7082 28.5363 22.7777 28.5982 22.7827 28.6814C22.7878 28.7619 22.7259 28.8315 22.6427 28.8366C22.6401 28.8366 22.6373 28.8365 22.6347 28.8365C22.5569 28.8363 22.49 28.777 22.4875 28.6991ZM21.7333 28.7797C21.653 28.7633 21.6023 28.6853 21.6159 28.6049C21.6323 28.5244 21.7103 28.4711 21.7907 28.4875C21.8712 28.5039 21.9219 28.5791 21.9083 28.6623C21.8945 28.7319 21.8326 28.7827 21.7629 28.7824C21.7522 28.7824 21.7441 28.7797 21.7333 28.7797ZM23.352 28.5733C23.3281 28.4955 23.3687 28.4124 23.4492 28.3886C23.5271 28.362 23.6102 28.4052 23.634 28.4832C23.6606 28.5611 23.6173 28.6441 23.5394 28.6706C23.5232 28.6759 23.5073 28.6759 23.4938 28.6758C23.4295 28.6755 23.3733 28.6379 23.352 28.5733ZM20.8677 28.495C20.7927 28.4598 20.7636 28.3713 20.7987 28.2989C20.8312 28.2238 20.9197 28.1919 20.9948 28.2271C21.0698 28.2623 21.0991 28.3509 21.0639 28.4232C21.0396 28.4795 20.9857 28.5088 20.9294 28.5086C20.9107 28.5085 20.8892 28.5059 20.8677 28.495ZM24.1607 28.2381C24.1153 28.1681 24.1372 28.077 24.2071 28.0317C24.2743 27.9889 24.3655 28.0107 24.4109 28.078C24.4536 28.1478 24.4344 28.239 24.3646 28.2844C24.3403 28.3004 24.3108 28.3057 24.2839 28.3056C24.2357 28.3054 24.1875 28.281 24.1607 28.2381ZM20.0995 28.004C20.0378 27.9528 20.0275 27.8588 20.0813 27.7947C20.1325 27.7331 20.2265 27.7254 20.2908 27.7766C20.3523 27.8278 20.36 27.9217 20.3088 27.986C20.2792 28.0207 20.2361 28.0393 20.1931 28.0392C20.1611 28.039 20.1261 28.0283 20.0995 28.004ZM24.8576 27.7119C24.7987 27.6554 24.7964 27.5614 24.8529 27.5C24.9095 27.4412 25.0033 27.4388 25.0622 27.4953C25.1211 27.5519 25.1233 27.6458 25.0668 27.7047C25.0372 27.7367 24.9996 27.75 24.9594 27.7499C24.9218 27.7497 24.8869 27.7361 24.8576 27.7119ZM19.4766 27.3391C19.4285 27.2719 19.445 27.1806 19.5094 27.1326C19.5766 27.0845 19.6705 27.0982 19.7187 27.1655C19.7668 27.2327 19.7504 27.324 19.6831 27.3719C19.6588 27.3907 19.6267 27.4014 19.5971 27.4013C19.5515 27.4011 19.506 27.3795 19.4766 27.3391ZM25.4045 27.0269C25.3322 26.9864 25.3084 26.8978 25.3461 26.8255C25.3868 26.7532 25.478 26.7294 25.5476 26.7672C25.6199 26.8077 25.6464 26.8989 25.606 26.9686C25.5789 27.0195 25.5279 27.0462 25.4742 27.046C25.4528 27.046 25.4259 27.0405 25.4045 27.0269ZM19.0393 26.5407C19.0101 26.4655 19.0479 26.3771 19.1231 26.3479C19.1983 26.3186 19.2841 26.3565 19.316 26.4316C19.3453 26.507 19.3074 26.5954 19.2322 26.6246C19.2133 26.6299 19.1946 26.6352 19.1757 26.6351C19.1194 26.6349 19.0632 26.5999 19.0393 26.5407ZM25.7642 26.2286C25.6836 26.2096 25.6357 26.1289 25.6575 26.0485C25.6791 25.9707 25.7599 25.9226 25.8376 25.9418C25.918 25.9636 25.966 26.0442 25.9443 26.1219C25.9443 26.1219 25.9443 26.1219 25.9443 26.1246C25.9279 26.1889 25.8661 26.2343 25.799 26.2341C25.7882 26.2341 25.7749 26.2314 25.7642 26.2286ZM18.8143 25.6572C18.8038 25.5767 18.8632 25.5017 18.9436 25.4912C19.0242 25.4809 19.0991 25.5401 19.1096 25.6206C19.12 25.7012 19.0607 25.7761 18.9802 25.7866C18.9748 25.7865 18.9669 25.7866 18.9615 25.7865C18.8891 25.7863 18.8248 25.7324 18.8143 25.6572ZM25.7649 25.2199C25.7649 25.2171 25.7649 25.2171 25.7649 25.2146C25.7649 25.2118 25.7649 25.2092 25.765 25.2038C25.7653 25.1232 25.8299 25.0564 25.9131 25.0567C25.9936 25.057 26.0604 25.1243 26.0602 25.2048C26.0602 25.2074 26.0601 25.2102 26.0601 25.2128C26.0601 25.2156 26.0601 25.2182 26.0601 25.221C26.0598 25.3014 25.9953 25.3683 25.9121 25.368C25.8315 25.3676 25.7646 25.3003 25.7649 25.2199ZM25.765 25.2038L25.765 25.2064C25.765 25.2038 25.7649 25.2064 25.765 25.2038ZM18.9457 24.9118C18.8625 24.9008 18.8064 24.8282 18.8148 24.7477C18.8258 24.6646 18.9011 24.6085 18.9815 24.6194C19.062 24.6278 19.1208 24.7031 19.1097 24.7836C19.1015 24.8587 19.037 24.9148 18.9617 24.9145C18.9564 24.9145 18.951 24.9118 18.9457 24.9118ZM25.6605 24.3742C25.6393 24.2964 25.6879 24.2135 25.7658 24.1948C25.8464 24.1736 25.9268 24.2222 25.948 24.3001C25.9664 24.3807 25.9206 24.4611 25.8399 24.4823C25.8265 24.4848 25.8158 24.4848 25.8024 24.4848C25.738 24.4845 25.6764 24.4414 25.6605 24.3742ZM19.1257 24.0566C19.0506 24.0267 19.0135 23.9407 19.0432 23.8631C19.073 23.7881 19.159 23.7508 19.2367 23.7806C19.3117 23.8103 19.349 23.8964 19.3191 23.9741C19.2948 24.0303 19.2384 24.0677 19.1793 24.0675C19.1633 24.0675 19.1445 24.062 19.1257 24.0566ZM25.352 23.5978C25.312 23.5252 25.3392 23.434 25.4091 23.3968C25.4817 23.3569 25.5701 23.3812 25.6102 23.4538C25.6501 23.5264 25.6256 23.6149 25.553 23.6548C25.5289 23.6681 25.5048 23.6734 25.4806 23.6733C25.4295 23.6732 25.3786 23.6462 25.352 23.5978ZM19.5174 23.2744C19.4505 23.2232 19.4349 23.1319 19.4833 23.065C19.5319 23.0008 19.6258 22.985 19.69 23.0335C19.7569 23.082 19.7727 23.1733 19.7242 23.2402C19.6945 23.2803 19.6488 23.3016 19.6033 23.3014C19.5738 23.3014 19.5416 23.2933 19.5174 23.2744ZM24.858 22.92C24.8019 22.8608 24.8049 22.7668 24.8641 22.7107C24.926 22.6546 25.0198 22.6576 25.0761 22.7168C25.1322 22.7761 25.1291 22.87 25.07 22.9261C25.0403 22.9529 25.0028 22.9661 24.9678 22.966C24.9276 22.9659 24.8874 22.9524 24.858 22.92ZM20.0885 22.611C20.0378 22.5491 20.0462 22.4553 20.1082 22.4018C20.1727 22.3511 20.2638 22.3594 20.3173 22.4213C20.3681 22.4859 20.3597 22.5798 20.2979 22.6306C20.2682 22.6545 20.236 22.6652 20.2011 22.6651C20.1608 22.6649 20.118 22.646 20.0885 22.611ZM24.2132 22.3866C24.1437 22.3433 24.1251 22.2493 24.1684 22.1824C24.2116 22.1129 24.3055 22.0917 24.3724 22.1349C24.4421 22.1808 24.4632 22.272 24.42 22.3417C24.3904 22.3844 24.342 22.4085 24.2937 22.4083C24.2668 22.4082 24.24 22.4027 24.2132 22.3866ZM20.8066 22.1118C20.772 22.0365 20.8046 21.9481 20.8772 21.9134C20.9523 21.8789 21.0408 21.9114 21.0754 21.9866C21.1102 22.0591 21.0776 22.1476 21.0023 22.1822C20.9835 22.1929 20.962 22.1982 20.9405 22.1981C20.8842 22.1979 20.8307 22.1654 20.8066 22.1118ZM23.4579 22.0297C23.3802 22.0027 23.3375 21.9194 23.3619 21.8416C23.3864 21.7639 23.4697 21.7212 23.5501 21.7483C23.5501 21.7483 23.5501 21.7483 23.5473 21.7483C23.6278 21.7727 23.6705 21.856 23.6433 21.9338C23.6242 21.9981 23.5652 22.0382 23.5034 22.038C23.4874 22.0379 23.4712 22.0351 23.4579 22.0297ZM21.6261 21.806C21.6103 21.7255 21.6643 21.6479 21.7447 21.6348C21.8252 21.6189 21.9029 21.6702 21.9187 21.7507C21.9319 21.8313 21.8806 21.909 21.8001 21.9248C21.7893 21.9273 21.7813 21.9273 21.7706 21.9273C21.7035 21.927 21.6392 21.8785 21.6261 21.806ZM22.6346 21.8739C22.5542 21.8683 22.49 21.7983 22.4957 21.7152C22.5013 21.6346 22.5714 21.5732 22.6546 21.5762C22.735 21.5818 22.7965 21.6517 22.7936 21.7349C22.7879 21.8127 22.7206 21.8741 22.6454 21.8739C22.64 21.874 22.6374 21.874 22.6346 21.8739Z" fill="url(#paint0_linear_1988_11958)"/>
<path d="M44.7864 28.7772C44.7813 28.694 44.8433 28.6246 44.9238 28.6194C45.0071 28.6144 45.0766 28.6763 45.0816 28.7595C45.0867 28.84 45.0247 28.9096 44.9416 28.9146C44.9389 28.9146 44.9362 28.9146 44.9336 28.9146C44.8557 28.9143 44.7889 28.855 44.7864 28.7772ZM44.0322 28.8578C43.9518 28.8414 43.9011 28.7634 43.9148 28.683C43.9311 28.6024 44.0092 28.5491 44.0896 28.5655C44.1701 28.5819 44.2208 28.6571 44.2071 28.7403C44.1934 28.8099 44.1315 28.8607 44.0618 28.8605C44.051 28.8605 44.0429 28.8578 44.0322 28.8578ZM45.6509 28.6514C45.6269 28.5735 45.6675 28.4905 45.748 28.4666C45.8259 28.44 45.909 28.4833 45.9328 28.5612C45.9594 28.639 45.9161 28.7221 45.8382 28.7486C45.8221 28.7539 45.8061 28.7539 45.7926 28.7538C45.7283 28.7536 45.6721 28.7159 45.6509 28.6514ZM43.1665 28.5731C43.0916 28.5379 43.0624 28.4493 43.0975 28.377C43.13 28.3019 43.2186 28.27 43.2936 28.3053C43.3686 28.3404 43.3979 28.429 43.3627 28.5013C43.3384 28.5576 43.2846 28.5869 43.2282 28.5866C43.2094 28.5866 43.188 28.5839 43.1665 28.5731ZM46.4595 28.3162C46.4142 28.2463 46.436 28.1552 46.5059 28.1098C46.5731 28.067 46.6644 28.0889 46.7097 28.1561C46.7524 28.2259 46.7332 28.3172 46.6633 28.3625C46.6391 28.3786 46.6095 28.3838 46.5827 28.3837C46.5345 28.3836 46.4862 28.3592 46.4595 28.3162ZM42.3983 28.0821C42.3366 28.0309 42.3263 27.9369 42.3802 27.8728C42.4313 27.8112 42.5253 27.8034 42.5896 27.8546C42.6511 27.9059 42.6588 27.9998 42.6076 28.0641C42.578 28.0988 42.5349 28.1174 42.492 28.1173C42.4599 28.1171 42.4249 28.1064 42.3983 28.0821ZM47.1563 27.79C47.0974 27.7335 47.0952 27.6395 47.1517 27.578C47.2083 27.5193 47.302 27.5169 47.3609 27.5734C47.4198 27.63 47.4221 27.7239 47.3656 27.7827C47.336 27.8147 47.2983 27.8281 47.2581 27.828C47.2205 27.8278 47.1858 27.8142 47.1563 27.79ZM41.7754 27.4173C41.7273 27.35 41.7438 27.2588 41.8082 27.2108C41.8755 27.1627 41.9694 27.1764 42.0175 27.2436C42.0656 27.3108 42.0492 27.4021 41.9819 27.4501C41.9576 27.4689 41.9255 27.4795 41.8959 27.4794C41.8503 27.4792 41.8048 27.4576 41.7754 27.4173ZM47.7034 27.105C47.631 27.0646 47.6073 26.9759 47.645 26.9036C47.6856 26.8313 47.7768 26.8075 47.8464 26.8453C47.9187 26.8858 47.9452 26.9771 47.9048 27.0468C47.8777 27.0976 47.8267 27.1243 47.773 27.1241C47.7516 27.1241 47.7248 27.1186 47.7034 27.105ZM41.3381 26.6188C41.3089 26.5436 41.3467 26.4552 41.422 26.426C41.4972 26.3966 41.5829 26.4345 41.6148 26.5097C41.6442 26.585 41.6062 26.6734 41.5311 26.7027C41.5122 26.708 41.4934 26.7133 41.4746 26.7132C41.4182 26.7131 41.362 26.678 41.3381 26.6188ZM48.063 26.3067C47.9825 26.2877 47.9345 26.207 47.9563 26.1266C47.9779 26.0489 48.0587 26.0008 48.1364 26.0199C48.2168 26.0417 48.2648 26.1223 48.2431 26.2001C48.2431 26.2001 48.2431 26.2001 48.2431 26.2027C48.2268 26.2671 48.1649 26.3125 48.0978 26.3122C48.0871 26.3122 48.0737 26.3095 48.063 26.3067ZM41.1131 25.7353C41.1027 25.6549 41.162 25.5799 41.2425 25.5694C41.3231 25.559 41.398 25.6183 41.4084 25.6987C41.4189 25.7793 41.3595 25.8541 41.2791 25.8646C41.2737 25.8646 41.2657 25.8646 41.2603 25.8646C41.1878 25.8643 41.1236 25.8105 41.1131 25.7353ZM48.0637 25.298C48.0637 25.2952 48.0637 25.2952 48.0637 25.2926C48.0637 25.2898 48.0638 25.2872 48.0638 25.2818C48.0641 25.2013 48.1288 25.1344 48.212 25.1347C48.2924 25.135 48.3592 25.2023 48.359 25.2828C48.359 25.2855 48.359 25.2882 48.359 25.2908C48.359 25.2936 48.3589 25.2962 48.3589 25.2989C48.3586 25.3794 48.2941 25.4462 48.2109 25.446C48.1303 25.4457 48.0635 25.3784 48.0637 25.298ZM48.0638 25.2818L48.0638 25.2844C48.0638 25.2818 48.0638 25.2845 48.0638 25.2818ZM41.2445 24.9899C41.1613 24.9789 41.1052 24.9062 41.1136 24.8257C41.1247 24.7426 41.1999 24.6866 41.2803 24.6974C41.3608 24.7059 41.4196 24.7811 41.4086 24.8616C41.4003 24.9367 41.3358 24.9928 41.2606 24.9925C41.2552 24.9926 41.2498 24.9899 41.2445 24.9899ZM47.9594 24.4523C47.9381 24.3746 47.9868 24.2916 48.0647 24.273C48.1452 24.2518 48.2256 24.3004 48.2468 24.3783C48.2653 24.4588 48.2194 24.5392 48.1388 24.5604C48.1253 24.5629 48.1147 24.5629 48.1013 24.5629C48.0368 24.5627 47.9752 24.5195 47.9594 24.4523ZM41.4246 24.1347C41.3494 24.1048 41.3123 24.0189 41.342 23.9412C41.3718 23.8662 41.4579 23.8289 41.5356 23.8587C41.6105 23.8884 41.6478 23.9745 41.618 24.0522C41.5937 24.1084 41.5372 24.1458 41.4781 24.1456C41.4621 24.1455 41.4433 24.1401 41.4246 24.1347ZM47.6508 23.676C47.6108 23.6034 47.638 23.5122 47.7079 23.475C47.7805 23.435 47.8689 23.4594 47.909 23.532C47.949 23.6046 47.9244 23.6931 47.8518 23.7331C47.8277 23.7463 47.8036 23.7516 47.7794 23.7515C47.7283 23.7513 47.6774 23.7242 47.6508 23.676ZM41.8162 23.3524C41.7493 23.3012 41.7336 23.21 41.782 23.1431C41.8306 23.0789 41.9246 23.0631 41.9888 23.1115C42.0557 23.1601 42.0715 23.2513 42.0229 23.3182C41.9933 23.3584 41.9476 23.3797 41.902 23.3795C41.8726 23.3795 41.8404 23.3714 41.8162 23.3524ZM47.1568 22.9981C47.1007 22.9388 47.1037 22.8449 47.1629 22.7888C47.2249 22.7327 47.3186 22.7357 47.3749 22.7949C47.431 22.8541 47.4279 22.9481 47.3688 23.0042C47.3391 23.031 47.3016 23.0442 47.2666 23.0441C47.2264 23.0439 47.1862 23.0304 47.1568 22.9981ZM42.3874 22.689C42.3366 22.6271 42.3451 22.5334 42.4069 22.4799C42.4714 22.4291 42.5626 22.4375 42.6161 22.4993C42.6668 22.5639 42.6585 22.6578 42.5966 22.7086C42.5669 22.7326 42.5348 22.7432 42.4999 22.7431C42.4596 22.743 42.4168 22.7241 42.3874 22.689ZM46.512 22.4646C46.4425 22.4214 46.4239 22.3274 46.4672 22.2605C46.5104 22.1909 46.6043 22.1698 46.6712 22.213C46.7409 22.2588 46.762 22.3501 46.7189 22.4197C46.6892 22.4625 46.6408 22.4866 46.5924 22.4864C46.5657 22.4863 46.5388 22.4808 46.512 22.4646ZM43.1055 22.1899C43.0709 22.1146 43.1034 22.0262 43.176 21.9916C43.2512 21.957 43.3397 21.9895 43.3742 22.0647C43.409 22.1373 43.3764 22.2257 43.3011 22.2603C43.2823 22.271 43.2609 22.2763 43.2393 22.2762C43.1829 22.276 43.1295 22.2436 43.1055 22.1899ZM45.7567 22.1078C45.679 22.0808 45.6363 21.9975 45.6607 21.9197C45.6852 21.842 45.7685 21.7993 45.8489 21.8264C45.8489 21.8264 45.8489 21.8264 45.8461 21.8265C45.9266 21.8508 45.9693 21.9342 45.9422 22.0119C45.9231 22.0763 45.864 22.1163 45.8023 22.1161C45.7861 22.116 45.77 22.1132 45.7567 22.1078ZM43.9249 21.8841C43.9091 21.8036 43.9631 21.7259 44.0436 21.7129C44.1241 21.697 44.2017 21.7483 44.2175 21.8288C44.2308 21.9094 44.1794 21.987 44.0989 22.0029C44.0881 22.0055 44.0802 22.0054 44.0694 22.0053C44.0024 22.0051 43.938 21.9566 43.9249 21.8841ZM44.9335 21.952C44.853 21.9464 44.7889 21.8765 44.7945 21.7933C44.8002 21.7127 44.8702 21.6513 44.9534 21.6543C45.0338 21.6599 45.0953 21.7298 45.0924 21.813C45.0868 21.8908 45.0195 21.9523 44.9443 21.9521C44.9388 21.9521 44.9362 21.952 44.9335 21.952Z" fill="url(#paint1_linear_1988_11958)"/>
<path d="M58.1242 3.82376C58.1215 4.59329 58.7432 5.21923 59.5127 5.22192C60.2822 5.22455 60.9081 4.60296 60.9108 3.83343C60.9135 3.0639 60.2919 2.43796 59.5223 2.43528C58.7528 2.43259 58.1269 3.05428 58.1242 3.82376Z" fill="#37D7D9"/>
<path d="M59.474 15.3369C59.474 15.3369 56.1451 15.7512 54.3406 11.401L55.2314 9.58097C55.5346 8.96149 56.2855 8.7091 56.9013 9.01972L58.808 9.98139C59.2268 10.1926 59.4904 10.6223 59.4887 11.0913L59.474 15.3369Z" fill="#37D7D9"/>
<path d="M59.3842 4.51216L58.2215 10.5969C58.1937 10.7418 58.0952 10.8632 57.959 10.92C57.8228 10.9769 57.6672 10.9615 57.5448 10.8793L57.2137 10.6569C56.9198 10.4595 56.8086 10.0805 56.9492 9.7556L59.2374 4.46697C59.2741 4.38229 59.4016 4.42151 59.3842 4.51216Z" fill="#69FDFF"/>
<path d="M18.8187 16.6516C18.0626 16.649 17.4207 16.0688 17.3552 15.3012C17.2859 14.4891 17.8882 13.7747 18.7001 13.7054C29.4294 12.7906 39.2324 12.7936 48.6686 13.7148C49.4798 13.7939 50.0732 14.5157 49.994 15.3268C49.9148 16.138 49.1957 16.7318 48.382 16.6521C39.1265 15.7489 29.4996 15.7468 18.9509 16.6462C18.9065 16.6499 18.8625 16.6517 18.8187 16.6516Z" fill="#37D7D9"/>
<path d="M33.7699 31.8644C27.8067 31.8437 21.797 31.5274 15.7799 30.9155C13.5738 30.6911 11.9164 28.735 11.9246 26.3653L11.9329 23.9741C11.941 21.6228 13.597 19.6799 15.7847 19.4548C28.6877 18.1276 40.3619 18.148 51.4746 19.5174C53.625 19.7824 55.2407 21.7337 55.2326 24.0563L55.224 26.5293C55.2159 28.8931 53.5528 30.8368 51.3556 31.0505C45.5687 31.6136 39.6923 31.8849 33.7699 31.8644ZM34.5661 18.7532C28.5733 18.7324 22.3514 19.0584 15.813 19.7311C13.7669 19.9415 12.2183 21.7661 12.2106 23.9751L12.2023 26.3663C12.1945 28.5925 13.7446 30.4295 15.808 30.6395C27.7827 31.8571 39.7336 31.9024 51.3286 30.7744C53.3833 30.5745 54.9385 28.7491 54.9462 26.5284L54.9548 24.0554C54.9624 21.8732 53.4516 20.0408 51.4406 19.793C45.9786 19.1198 40.3802 18.7732 34.5661 18.7532Z" fill="#37D7D9"/>
<path d="M4.74609 27.8531C6.51544 30.6136 11.9611 36.223 19.5889 36.5769" stroke="#008B8C" stroke-width="1.52194" stroke-linecap="round"/>
<rect x="16.5113" y="34.019" width="6.32806" height="3.70675" rx="1.85337" transform="rotate(4.54609 16.5113 34.019)" fill="#008B8C" stroke="#008B8C" stroke-width="0.126828"/>
<path d="M6.8749 21.598C6.8749 21.598 9.93755 10.816 16.8022 10.0642C16.8022 10.0642 14.9403 9.09592 12.8675 9.98099C10.7948 10.8661 5.35704 15.9547 5.15773 21.7975C6.50493 22.3098 6.8749 21.598 6.8749 21.598Z" fill="#008B8C"/>
<path d="M5.25872 19.4776C0.998674 20.1036 1.22698 25.4603 1.22698 25.4603C0.713175 29.3107 1.73753 31.289 3.13416 32.2811C4.08826 32.9588 5.32894 33.0843 6.40076 32.6145C7.47258 32.1448 8.21971 31.1475 8.36917 29.9868C8.50417 28.9387 8.64762 27.9431 8.74514 27.5921C8.98103 26.7415 9.51881 18.8514 5.25872 19.4776Z" fill="#37D6D9"/>
<path d="M5.66802 20.3975C4.7555 20.1872 3.82031 20.6274 3.40311 21.4658C0.416731 27.4658 3.45605 31.6396 5.05015 31.8099C6.7304 31.9894 7.13689 23.8811 6.89215 21.7834C6.78946 20.9044 6.25474 20.5326 5.66802 20.3975Z" fill="white"/>
<path d="M10.7487 3.65765C10.746 4.42713 10.1201 5.04882 9.35054 5.04614C8.58101 5.04345 7.95937 4.41751 7.96206 3.64798C7.96469 2.87851 8.59069 2.25681 9.36022 2.25949C10.1297 2.26218 10.7514 2.88818 10.7487 3.65765Z" fill="#37D7D9"/>
<path d="M9.31818 15.167C9.31818 15.167 12.6441 15.6043 14.4788 11.2667L13.6006 9.44057C13.3016 8.81897 12.5525 8.5614 11.9346 8.86771L10.0212 9.81611C9.60095 10.0244 9.33449 10.4523 9.33286 10.9214L9.31818 15.167Z" fill="#37D7D9"/>
<path d="M9.6303 4.29529C9.59425 4.21035 9.46652 4.24871 9.48325 4.33945L10.6086 10.4588C10.6343 10.598 10.728 10.7151 10.8582 10.7705C10.9885 10.8259 11.1379 10.8122 11.2559 10.7341L11.6111 10.4991C11.9063 10.3038 12.0202 9.92553 11.8818 9.59966L9.6303 4.29529Z" fill="#69FDFF"/>
<defs>
<linearGradient id="paint0_linear_1988_11958" x1="17.1236" y1="18.0475" x2="25.0012" y2="28.718" gradientUnits="userSpaceOnUse">
<stop stop-color="#4F52FF"/>
<stop offset="1" stop-color="#4042E2"/>
</linearGradient>
<linearGradient id="paint1_linear_1988_11958" x1="39.4225" y1="18.1256" x2="47.3" y2="28.796" gradientUnits="userSpaceOnUse">
<stop stop-color="#4F52FF"/>
<stop offset="1" stop-color="#4042E2"/>
</linearGradient>
</defs>
</svg>
