<svg width="57" height="57" viewBox="0 0 57 57" fill="none" xmlns="http://www.w3.org/2000/svg">
<path d="M28.3333 0C43.9733 0 56.6667 12.6933 56.6667 28.3333C56.6667 43.9733 43.9733 56.6667 28.3333 56.6667C12.6933 56.6667 0 43.9733 0 28.3333C0 12.6933 12.6933 0 28.3333 0ZM28.3333 51C40.8765 51 51 40.8765 51 28.3333C51 15.7902 40.8765 5.66667 28.3333 5.66667C25.3557 5.66294 22.4065 6.24668 19.6548 7.38447C16.903 8.52225 14.4028 10.1917 12.2973 12.2973C10.1917 14.4028 8.52225 16.903 7.38447 19.6548C6.24668 22.4065 5.66294 25.3557 5.66667 28.3333C5.66667 40.8765 15.7902 51 28.3333 51ZM28.3333 45.3333C18.9267 45.3333 11.3333 37.74 11.3333 28.3333C11.3333 18.9267 18.9267 11.3333 28.3333 11.3333C37.74 11.3333 45.3333 18.9267 45.3333 28.3333C45.3333 37.74 37.74 45.3333 28.3333 45.3333ZM28.3333 22.6667C25.2167 22.6667 22.6667 25.2167 22.6667 28.3333C22.6667 31.45 25.2167 34 28.3333 34C31.45 34 34 31.45 34 28.3333C34 25.2167 31.45 22.6667 28.3333 22.6667Z" fill="#545454"/>
</svg>
