<svg width="68" height="70" viewBox="0 0 68 70" fill="none" xmlns="http://www.w3.org/2000/svg">
<path d="M29.1797 29.2657C37.2612 29.2657 43.8125 22.7143 43.8125 14.6328C43.8125 6.55134 37.2612 0 29.1797 0C21.0982 0 14.5469 6.55134 14.5469 14.6328C14.5469 22.7143 21.0982 29.2657 29.1797 29.2657Z" fill="#545454"/>
<path d="M38.5586 56.0078H54.4146V59.179H38.5586V56.0078Z" fill="#545454"/>
<path d="M24.9623 60.5416V67.3371C24.9623 67.9378 25.2009 68.514 25.6257 68.9388C26.0505 69.3636 26.6267 69.6022 27.2274 69.6022H65.7349C66.3356 69.6022 66.9118 69.3636 67.3366 68.9388C67.7614 68.514 68 67.9378 68 67.3371V44.6856C68 44.0849 67.7614 43.5087 67.3366 43.0839C66.9118 42.6591 66.3356 42.4205 65.7349 42.4205H49.8789V39.0907C49.8789 38.49 49.6402 37.9138 49.2154 37.489C48.7906 37.0642 48.2145 36.8256 47.6137 36.8256C47.013 36.8256 46.4368 37.0642 46.012 37.489C45.5872 37.9138 45.3486 38.49 45.3486 39.0907V42.4205H40.8183V34.3113C36.9692 33.6814 33.0757 33.3633 29.1754 33.3599C20.5742 33.3233 12.0694 35.1712 4.25886 38.7736C2.97336 39.3802 1.88886 40.3429 1.13404 41.5474C0.379229 42.7519 -0.0142158 44.1476 0.000392502 45.569V60.5416H24.9623ZM63.4697 65.0719H29.4926V46.9508H45.3486V47.9021C45.3486 48.5029 45.5872 49.079 46.012 49.5038C46.4368 49.9286 47.013 50.1673 47.6137 50.1673C48.2145 50.1673 48.7906 49.9286 49.2154 49.5038C49.6402 49.079 49.8789 48.5029 49.8789 47.9021V46.9508H63.4697V65.0719Z" fill="#545454"/>
</svg>
