<svg width="65" height="65" viewBox="0 0 65 65" fill="none" xmlns="http://www.w3.org/2000/svg">
<path d="M25.0656 7.7469C27.1967 6.10637 29.8106 5.2168 32.5 5.2168C35.1894 5.2168 37.8033 6.10637 39.9344 7.7469L54.1531 18.6872C55.6323 19.8259 56.8302 21.2892 57.6543 22.9642C58.4784 24.6392 58.9067 26.4811 58.9062 28.3478V46.7185C58.9062 49.9508 57.6222 53.0507 55.3366 55.3363C53.051 57.6219 49.9511 58.906 46.7188 58.906H18.2812C15.0489 58.906 11.949 57.6219 9.66339 55.3363C7.37779 53.0507 6.09375 49.9508 6.09375 46.7185V28.3478C6.09326 26.4811 6.52158 24.6392 7.34569 22.9642C8.1698 21.2892 9.36767 19.8259 10.8469 18.6872L25.0656 7.7469ZM28.4375 32.4997C25.6344 32.4997 23.3594 34.7747 23.3594 37.5778V52.8122H41.6406V37.5778C41.6406 34.7747 39.3656 32.4997 36.5625 32.4997H28.4375Z" fill="#545454"/>
</svg>
