<svg width="68" height="68" viewBox="0 0 68 68" fill="none" xmlns="http://www.w3.org/2000/svg">
<path fill-rule="evenodd" clip-rule="evenodd" d="M24.2385 37.7775C23.2489 40.0423 22.6907 42.5383 22.6674 45.1619L22.6667 45.3333V68H10C4.47715 68 0 63.5228 0 58V52.8889C0 44.6234 6.6277 37.9132 14.8612 37.7798L15.1111 37.7777L24.2385 37.7775ZM52.8888 30.2223C61.2347 30.2223 68 36.9877 68 45.3333V58C68 63.5229 63.5228 68 58 68H26.4444V45.3333C26.4444 36.9877 33.2099 30.2223 41.5556 30.2223H52.8888ZM18.8889 11.3333C25.1375 11.3333 30.2223 16.4183 30.2223 22.6667C30.2223 28.9151 25.1375 34 18.8889 34C12.6406 34 7.55561 28.9151 7.55561 22.6667C7.55561 16.4183 12.6406 11.3333 18.8889 11.3333ZM47.2223 0C54.5135 0 60.4446 5.93105 60.4446 13.2223C60.4446 20.5135 54.5135 26.4444 47.2225 26.4444C39.9312 26.4444 34.0002 20.5133 34.0002 13.2223C34 5.93105 39.931 0 47.2223 0Z" fill="#545454"/>
</svg>
