<svg width="65" height="68" viewBox="0 0 65 68" fill="none" xmlns="http://www.w3.org/2000/svg">
<g clip-path="url(#clip0_1_343)">
<path d="M27.088 0H0V5.54767H2.06304V56.4853C2.06304 59.5385 3.27279 62.4665 5.42616 64.6254C7.57952 66.7843 10.5001 67.9972 13.5454 67.9972C16.5908 67.9972 19.5113 66.7843 21.6647 64.6254C23.8181 62.4665 25.0278 59.5385 25.0278 56.4853V5.54767H27.0909L27.088 0ZM21.662 56.491C21.6076 58.6098 20.7303 60.6236 19.2169 62.1035C17.7034 63.5833 15.6735 64.4123 13.5594 64.4138C11.4453 64.4152 9.41424 63.5891 7.89874 62.1114C6.38324 60.6336 5.50313 58.6211 5.44587 56.5023V53.5443H11.0217V50.286H5.44587V44.5485H11.0217V41.2108H5.44587V35.4733H11.0217V32.1357H5.44587V26.3982H11.0217V23.1398H5.44587V17.4023H11.0217V14.144H5.44587V5.50233H21.662V56.491ZM37.1037 0V5.54767H39.1667V56.4853C39.1667 59.5385 40.3765 62.4665 42.5299 64.6254C44.6832 66.7843 47.6038 67.9972 50.6491 67.9972C53.6945 67.9972 56.615 66.7843 58.7684 64.6254C60.9218 62.4665 62.1315 59.5385 62.1315 56.4853V5.54767H64.1946V0H37.1037ZM58.76 29.7217H42.5467V26.4237H48.1226V23.1653H42.5467V17.4278H48.1226V14.1695H42.5467V5.52783H58.76V29.7217Z" fill="#545454"/>
</g>
<defs>
<clipPath id="clip0_1_343">
<rect width="65" height="68" fill="white"/>
</clipPath>
</defs>
</svg>
