<svg width="65" height="65" viewBox="0 0 65 65" fill="none" xmlns="http://www.w3.org/2000/svg">
<path d="M14.8971 8.125C15.9746 8.125 17.0079 8.55301 17.7698 9.31488C18.5316 10.0767 18.9596 11.1101 18.9596 12.1875V52.8125C18.9596 53.8899 18.5316 54.9233 17.7698 55.6851C17.0079 56.447 15.9746 56.875 14.8971 56.875H9.48047C8.40303 56.875 7.36971 56.447 6.60785 55.6851C5.84598 54.9233 5.41797 53.8899 5.41797 52.8125V12.1875C5.41797 11.1101 5.84598 10.0767 6.60785 9.31488C7.36971 8.55301 8.40303 8.125 9.48047 8.125H14.8971ZM31.1471 8.125C32.2246 8.125 33.2579 8.55301 34.0198 9.31488C34.7816 10.0767 35.2096 11.1101 35.2096 12.1875V52.8125C35.2096 53.8899 34.7816 54.9233 34.0198 55.6851C33.2579 56.447 32.2246 56.875 31.1471 56.875H25.7305C24.653 56.875 23.6197 56.447 22.8578 55.6851C22.096 54.9233 21.668 53.8899 21.668 52.8125V12.1875C21.668 11.1101 22.096 10.0767 22.8578 9.31488C23.6197 8.55301 24.653 8.125 25.7305 8.125H31.1471ZM50.8665 16.5858L59.5711 50.4915C59.7038 51.0082 59.7334 51.5461 59.6582 52.0743C59.583 52.6025 59.4045 53.1108 59.1329 53.57C58.8613 54.0293 58.5019 54.4305 58.0752 54.7508C57.6485 55.0711 57.1629 55.3042 56.6461 55.4369L51.5653 56.7369C51.0485 56.8696 50.5106 56.8992 49.9824 56.824C49.4542 56.7488 48.9459 56.5703 48.4867 56.2987C48.0275 56.0271 47.6262 55.6677 47.3059 55.241C46.9856 54.8143 46.7525 54.3287 46.6198 53.8119L37.9153 19.9171C37.7826 19.4003 37.7529 18.8624 37.8281 18.3342C37.9033 17.806 38.0818 17.2978 38.3534 16.8385C38.625 16.3793 38.9845 15.9781 39.4112 15.6577C39.8378 15.3374 40.3235 15.1043 40.8403 14.9717L45.9211 13.6635C46.4379 13.5308 46.9757 13.5012 47.504 13.5764C48.0322 13.6516 48.5404 13.8301 48.9997 14.1017C49.4589 14.3733 49.8601 14.7327 50.1804 15.1594C50.5008 15.5861 50.7339 16.069 50.8665 16.5858Z" fill="#545454"/>
</svg>
