<svg width="56" height="70" viewBox="0 0 56 70" fill="none" xmlns="http://www.w3.org/2000/svg">
<path d="M15.75 57.75H40.25V52.5H15.75V57.75ZM28 47.25C32.8417 47.25 36.9693 45.5432 40.383 42.1295C43.7967 38.7158 45.5023 34.5893 45.5 29.75C45.4977 24.9107 43.7908 20.7842 40.3795 17.3705C36.9682 13.9568 32.8417 12.25 28 12.25C23.1583 12.25 19.0318 13.9568 15.6205 17.3705C12.2092 20.7842 10.5023 24.9107 10.5 29.75C10.4977 34.5893 12.2045 38.717 15.6205 42.133C19.0365 45.549 23.163 47.2547 28 47.25ZM28 41.3875C27.5333 40.7458 27.0375 39.6807 26.5125 38.192C25.9875 36.7033 25.6375 34.7643 25.4625 32.375H30.5375C30.3625 34.7667 30.0125 36.7068 29.4875 38.1955C28.9625 39.6842 28.4667 40.7482 28 41.3875ZM21.7 40.25C20.3 39.375 19.1042 38.2667 18.1125 36.925C17.1208 35.5833 16.45 34.0667 16.1 32.375H20.2125C20.3292 33.8333 20.5042 35.2193 20.7375 36.533C20.9708 37.8467 21.2917 39.0857 21.7 40.25ZM34.3 40.25C34.7083 39.0833 35.0292 37.8443 35.2625 36.533C35.4958 35.2217 35.6708 33.8357 35.7875 32.375H39.9C39.55 34.0667 38.8792 35.5833 37.8875 36.925C36.8958 38.2667 35.7 39.375 34.3 40.25ZM16.1 27.125C16.45 25.4333 17.1208 23.9167 18.1125 22.575C19.1042 21.2333 20.3 20.125 21.7 19.25C21.2917 20.4167 20.9708 21.6557 20.7375 22.967C20.5042 24.2783 20.3292 25.6643 20.2125 27.125H16.1ZM25.4625 27.125C25.6375 24.7333 25.9875 22.7943 26.5125 21.308C27.0375 19.8217 27.5333 18.7565 28 18.1125C28.4667 18.7542 28.9625 19.8193 29.4875 21.308C30.0125 22.7967 30.3625 24.7357 30.5375 27.125H25.4625ZM35.7875 27.125C35.6708 25.6667 35.4958 24.2818 35.2625 22.9705C35.0292 21.6592 34.7083 20.419 34.3 19.25C35.7 20.125 36.8958 21.2333 37.8875 22.575C38.8792 23.9167 39.55 25.4333 39.9 27.125H35.7875ZM0 70V0H49C50.925 0 52.5735 0.686 53.9455 2.058C55.3175 3.43 56.0023 5.07733 56 7V63C56 64.925 55.3152 66.5735 53.9455 67.9455C52.5758 69.3175 50.9273 70.0023 49 70H0Z" fill="#545454"/>
</svg>
