<svg width="408" height="66" viewBox="0 0 408 66" fill="none" xmlns="http://www.w3.org/2000/svg">
<rect x="44.7695" y="20.2969" width="68.9626" height="22.5241" fill="#D9D9D9"/>
<rect x="170.457" y="20.2969" width="68.9626" height="22.5241" fill="#D9D9D9"/>
<rect x="292.812" y="20.2969" width="68.9626" height="22.5241" fill="#D9D9D9"/>
<g filter="url(#filter0_d_2900_9502)">
<rect x="6.67188" y="4.72656" width="393.754" height="52" rx="11.123" fill="white"/>
</g>
<path d="M50.2103 24.1928V25.0271C50.2103 25.1377 50.1664 25.2438 50.0882 25.322C50.0099 25.4002 49.9038 25.4442 49.7932 25.4442H48.5419V26.0699C48.5419 26.4154 48.2617 26.6955 47.9162 26.6955H27.4777C27.1322 26.6955 26.852 26.4154 26.852 26.0699V25.4442H25.6007C25.4901 25.4442 25.384 25.4002 25.3058 25.322C25.2275 25.2438 25.1836 25.1377 25.1836 25.0271V24.1928C25.1836 24.1103 25.2081 24.0297 25.2539 23.9611C25.2998 23.8924 25.365 23.839 25.4412 23.8074L37.5375 19.2192C37.6396 19.1769 37.7543 19.1769 37.8565 19.2192L49.9527 23.8074C50.029 23.839 50.0941 23.8924 50.14 23.9611C50.1859 24.0297 50.2103 24.1103 50.2103 24.1928ZM48.959 40.0431H26.4349C25.7438 40.0431 25.1836 40.6034 25.1836 41.2945V42.1287C25.1836 42.2393 25.2275 42.3454 25.3058 42.4236C25.384 42.5018 25.4901 42.5458 25.6007 42.5458H49.7932C49.9038 42.5458 50.0099 42.5018 50.0882 42.4236C50.1664 42.3454 50.2103 42.2393 50.2103 42.1287V41.2945C50.2103 40.6034 49.6501 40.0431 48.959 40.0431ZM29.3547 27.5297V37.5404H27.4777C27.1322 37.5404 26.852 37.8206 26.852 38.1661V39.2089H48.5419V38.1661C48.5419 37.8206 48.2617 37.5404 47.9162 37.5404H46.0392V27.5297H42.7023V37.5404H39.3654V27.5297H36.0285V37.5404H32.6916V27.5297H29.3547Z" fill="#37D7D9"/>
<path d="M191.753 25.8905C191.598 25.7347 191.414 25.6112 191.212 25.5271C191.009 25.4429 190.792 25.3999 190.572 25.4004H187.235V24.5661C187.235 23.0174 186.62 21.5321 185.525 20.4369C184.43 19.3418 182.944 18.7266 181.396 18.7266C179.847 18.7266 178.362 19.3418 177.266 20.4369C176.171 21.5321 175.556 23.0174 175.556 24.5661V25.4004H172.219C171.777 25.4004 171.352 25.5761 171.039 25.889C170.727 26.2019 170.551 26.6263 170.551 27.0688V38.3308C170.551 40.3643 172.271 42.0849 174.305 42.0849H188.487C189.47 42.0852 190.415 41.7006 191.119 41.0134C191.473 40.6755 191.755 40.2694 191.948 39.8196C192.14 39.3697 192.24 38.8855 192.241 38.396V27.0688C192.241 26.8499 192.199 26.6331 192.115 26.4308C192.031 26.2286 191.908 26.0449 191.753 25.8905ZM177.225 24.5661C177.225 23.4599 177.664 22.3989 178.446 21.6167C179.229 20.8345 180.289 20.395 181.396 20.395C182.502 20.395 183.563 20.8345 184.345 21.6167C185.127 22.3989 185.567 23.4599 185.567 24.5661V25.4004H177.225V24.5661Z" fill="#37D7D9"/>
<path fill-rule="evenodd" clip-rule="evenodd" d="M286.203 19.3183C285.257 19.4421 284.757 19.6698 284.4 20.0191C284.044 20.3694 283.811 20.86 283.684 21.7861C283.553 22.7403 283.551 24.004 283.551 25.8154V35.8244C284.013 35.5087 284.526 35.2744 285.068 35.1319C285.685 34.9695 286.404 34.9695 287.459 34.9707H302.237V25.8166C302.237 24.004 302.235 22.7403 302.104 21.7861C301.977 20.86 301.745 20.3694 301.388 20.0191C301.031 19.6698 300.531 19.4421 299.585 19.3183C298.611 19.1898 297.322 19.1875 295.472 19.1875H290.317C288.467 19.1875 287.177 19.1898 286.203 19.3183ZM286.773 24.5541C286.773 24.0308 287.205 23.6069 287.739 23.6069H298.049C298.303 23.6047 298.547 23.703 298.728 23.8804C298.909 24.0577 299.012 24.2995 299.015 24.5529C299.012 24.8065 298.909 25.0486 298.728 25.2262C298.547 25.4038 298.303 25.5023 298.049 25.5001H287.739C287.486 25.5023 287.242 25.4039 287.061 25.2266C286.88 25.0493 286.776 24.8075 286.773 24.5541ZM287.739 28.0263C287.486 28.0241 287.242 28.1224 287.061 28.2997C286.88 28.4771 286.776 28.7189 286.773 28.9723C286.773 29.4955 287.205 29.9195 287.739 29.9195H294.182C294.436 29.922 294.68 29.8238 294.861 29.6464C295.043 29.4691 295.146 29.227 295.149 28.9735C295.147 28.7197 295.043 28.4773 294.862 28.2997C294.681 28.1221 294.436 28.0238 294.182 28.0263H287.739Z" fill="#37D7D9"/>
<path d="M287.611 36.8633H302.241C302.238 38.183 302.217 39.1687 302.109 39.9466C301.982 40.8727 301.75 41.3633 301.394 41.7136C301.036 42.0628 300.536 42.2906 299.59 42.4144C298.616 42.5428 297.327 42.5452 295.477 42.5452H290.321C288.471 42.5452 287.181 42.5428 286.207 42.4155C285.261 42.2906 284.761 42.0628 284.404 41.7136C284.048 41.3633 283.815 40.8727 283.688 39.9466C283.64 39.5962 283.609 39.2026 283.59 38.7553C283.75 38.3178 284.014 37.9258 284.359 37.6131C284.705 37.3004 285.121 37.0763 285.572 36.9602C285.91 36.8715 286.351 36.8633 287.611 36.8633Z" fill="#37D7D9"/>
<line x1="143.208" y1="14.4578" x2="143.208" y2="46.9925" stroke="#CECECE" stroke-width="0.55615" stroke-linecap="round"/>
<line x1="265.419" y1="14.4578" x2="265.419" y2="46.9925" stroke="#CECECE" stroke-width="0.55615" stroke-linecap="round"/>
<defs>
<filter id="filter0_d_2900_9502" x="-0.00192261" y="-0.000710845" width="407.102" height="65.3476" filterUnits="userSpaceOnUse" color-interpolation-filters="sRGB">
<feFlood flood-opacity="0" result="BackgroundImageFix"/>
<feColorMatrix in="SourceAlpha" type="matrix" values="0 0 0 0 0 0 0 0 0 0 0 0 0 0 0 0 0 0 127 0" result="hardAlpha"/>
<feOffset dy="1.94652"/>
<feGaussianBlur stdDeviation="3.3369"/>
<feComposite in2="hardAlpha" operator="out"/>
<feColorMatrix type="matrix" values="0 0 0 0 0 0 0 0 0 0 0 0 0 0 0 0 0 0 0.25 0"/>
<feBlend mode="normal" in2="BackgroundImageFix" result="effect1_dropShadow_2900_9502"/>
<feBlend mode="normal" in="SourceGraphic" in2="effect1_dropShadow_2900_9502" result="shape"/>
</filter>
</defs>
</svg>
