<svg width="48" height="45" viewBox="0 0 48 45" fill="none" xmlns="http://www.w3.org/2000/svg">
<path d="M4.8 45C3.48 45 2.3504 44.5366 1.4112 43.6097C0.472 42.6829 0.0016 41.5674 0 40.2632V14.2105C0 12.9079 0.4704 11.7932 1.4112 10.8663C2.352 9.93947 3.4816 9.47526 4.8 9.47368H14.4V4.73684C14.4 3.43421 14.8704 2.31947 15.8112 1.39263C16.752 0.46579 17.8816 0.00157895 19.2 0H28.8C30.12 0 31.2504 0.464211 32.1912 1.39263C33.132 2.32105 33.6016 3.43579 33.6 4.73684V9.47368H43.2C44.52 9.47368 45.6504 9.93789 46.5912 10.8663C47.532 11.7947 48.0016 12.9095 48 14.2105V40.2632C48 41.5658 47.5304 42.6813 46.5912 43.6097C45.652 44.5382 44.5216 45.0016 43.2 45H4.8ZM19.2 9.47368H28.8V4.73684H19.2V9.47368Z" fill="#545454"/>
</svg>
