<svg width="60" height="60" viewBox="0 0 60 60" fill="none" xmlns="http://www.w3.org/2000/svg">
<path d="M41.514 32.073L41.316 32.133C40.9127 32.2528 40.4947 32.3154 40.074 32.319C38.244 32.319 37.212 31.083 37.764 29.556C38.172 28.44 39.237 27.498 40.539 27.063C42.555 26.328 43.965 24.651 43.965 22.698C43.965 20.067 41.406 17.937 38.25 17.937C35.094 17.937 32.535 20.067 32.535 22.698V37.302C32.535 40.812 30.501 43.893 27.456 45.636C25.7158 46.6272 23.7467 47.1464 21.744 47.142C15.792 47.142 10.95 42.729 10.95 37.302C10.95 35.574 11.442 33.951 12.303 32.541C13.635 30.351 15.855 28.68 18.513 27.918C18.973 27.772 19.433 27.699 19.893 27.699C21.729 27.699 22.767 28.941 22.212 30.471C21.834 31.512 20.814 32.406 19.629 32.88C19.4881 32.9268 19.349 32.9789 19.212 33.036C17.328 33.816 16.029 35.43 16.029 37.302C16.029 39.933 18.588 42.063 21.744 42.063C24.9 42.063 27.456 39.933 27.456 37.302V22.698C27.456 19.188 29.493 16.107 32.538 14.364C34.2782 13.3728 36.2473 12.8536 38.25 12.858C44.202 12.858 49.044 17.271 49.044 22.698C49.0405 24.3794 48.5723 26.0271 47.691 27.459C46.365 29.637 44.154 31.305 41.514 32.073ZM0 30C0 46.569 13.431 60 30 60C46.569 60 60 46.569 60 30C60 13.431 46.569 0 30 0C13.431 0 0 13.431 0 30Z" fill="#545454"/>
</svg>
