<svg width="65" height="65" viewBox="0 0 65 65" fill="none" xmlns="http://www.w3.org/2000/svg">
<path d="M23.906 8.37601C23.8145 7.92966 23.5518 7.53695 23.1741 7.28213C22.7964 7.02732 22.3338 6.93071 21.8857 7.01304C21.4376 7.09538 21.0396 7.35009 20.7771 7.72252C20.5147 8.09495 20.4087 8.55542 20.4819 9.00512C20.5144 9.18464 20.5499 9.36262 20.5886 9.53905C14.9197 11.2964 11.7022 14.161 9.97043 17.4342C8.35703 20.4799 8.1481 23.6789 8.12489 26.0932L5.72685 29.1574C5.28544 29.7216 4.96478 30.3704 4.78479 31.0637C4.60479 31.757 4.56932 32.4799 4.68058 33.1875C4.79183 33.8951 5.04744 34.5723 5.4315 35.1769C5.81556 35.7815 6.31988 36.3006 6.9131 36.7021L33.8951 54.9485C36.8706 56.9606 40.3804 58.0359 43.9724 58.036H51.7863C52.9254 58.0362 54.053 57.8094 55.1034 57.3689C56.1538 56.9283 57.1059 56.2829 57.904 55.4703C58.7022 54.6577 59.3304 53.6941 59.752 52.636C60.1735 51.5778 60.38 50.4463 60.3594 49.3074C60.2711 44.5717 56.3433 41.2219 52.6011 39.7083C51.1108 39.1048 49.8363 38.2528 49.0424 37.0805L40.2326 22.0469L40.3324 22.0283C40.7738 21.9369 41.1625 21.6779 41.4168 21.3058C41.6711 20.9337 41.7712 20.4775 41.696 20.0331C41.6209 19.5886 41.3763 19.1907 41.0137 18.9229C40.6512 18.6551 40.1989 18.5384 39.752 18.5973C38.9333 18.735 38.1247 18.8062 37.3261 18.8108C31.4785 18.8573 26.3458 15.5121 24.4654 10.4235C24.2211 9.75833 24.0324 9.07328 23.906 8.37601ZM17.529 14.6044L22.7522 23.6487C22.9807 24.0448 23.129 24.4821 23.1885 24.9356C23.248 25.389 23.2176 25.8498 23.0991 26.2915C22.9805 26.7332 22.7761 27.1472 22.4975 27.5099C22.2189 27.8726 21.8716 28.1768 21.4754 28.4053L17.0461 30.9635L11.6047 27.2957V26.6967C11.6047 24.2685 11.7301 21.5524 13.0463 19.0639C13.8727 17.5039 15.2261 15.9323 17.529 14.6044ZM20.9415 33.5937L30.0694 28.324C30.4655 28.0955 30.9028 27.9473 31.3562 27.8877C31.8097 27.8282 32.2704 27.8586 32.7121 27.9772C33.1538 28.0957 33.5679 28.3002 33.9305 28.5787C34.2932 28.8573 34.5975 29.2046 34.826 29.6008L36.6831 32.8207C37.145 33.6201 37.2705 34.5704 37.032 35.4624C36.7934 36.3544 36.2103 37.1151 35.411 37.5773L30.7983 40.2399L20.9415 33.5937ZM44.0095 51.0787H56.6149C56.277 52.0917 55.6287 52.9725 54.762 53.5963C53.8953 54.2201 52.8542 54.5551 51.7863 54.5539H43.9724C41.0764 54.5538 38.2467 53.6871 35.8474 52.0653L8.8631 33.8189C8.66519 33.685 8.49695 33.5118 8.36886 33.3101C8.24076 33.1084 8.15555 32.8825 8.11854 32.6465C8.08152 32.4104 8.09348 32.1693 8.15368 31.9381C8.21388 31.7068 8.32103 31.4905 8.46846 31.3024L9.45507 30.0442L37.8438 49.196C39.6656 50.4238 41.8126 51.0793 44.0095 51.0787Z" fill="#545454"/>
</svg>
