<svg width="65" height="65" viewBox="0 0 65 65" fill="none" xmlns="http://www.w3.org/2000/svg">
<path d="M27.5027 40.0097L27.4783 39.9529C27.1122 39.8527 26.7491 39.7417 26.3896 39.6197L26.3625 39.6089C22.6211 38.3288 19.3736 35.9109 17.0746 32.6936C14.7756 29.4762 13.5402 25.6205 13.5412 21.6662C13.54 16.8132 15.4 12.1444 18.738 8.62168C22.076 5.09892 26.6378 2.99038 31.4839 2.73038C36.3299 2.47037 41.0912 4.07869 44.787 7.22406C48.4827 10.3694 50.8315 14.8123 51.3496 19.6377C51.4688 20.7535 50.5479 21.6662 49.4267 21.6662C48.3054 21.6662 47.409 20.7508 47.26 19.6404C46.8998 17.0194 45.8481 14.5417 44.2132 12.4618C42.5782 10.3819 40.4189 8.77484 37.9572 7.80583C35.4955 6.83682 32.8201 6.54079 30.2061 6.94817C27.5921 7.35554 25.1337 8.45163 23.0835 10.1238C21.0334 11.7959 19.4655 13.9838 18.541 16.4626C17.6165 18.9414 17.3687 21.6216 17.8231 24.2279C18.2775 26.8342 19.4176 29.2724 21.1264 31.2921C22.8352 33.3118 25.051 34.84 27.546 35.7197C28.0487 34.5837 28.9265 33.6549 30.0325 33.0891C31.1384 32.5232 32.4052 32.3547 33.6206 32.6119C34.836 32.869 35.9261 33.536 36.7082 34.5013C37.4902 35.4665 37.9168 36.6712 37.9163 37.9135C37.9175 39.1655 37.485 40.3792 36.6924 41.3483C35.8997 42.3174 34.7959 42.982 33.5685 43.2291C32.3412 43.4761 31.0661 43.2904 29.9603 42.7035C28.8544 42.1166 27.986 41.1647 27.5027 40.0097ZM24.7267 43.341C21.5334 42.1941 18.6331 40.3555 16.2333 37.9568C14.7495 38.1294 13.3808 38.841 12.3872 39.9565C11.3936 41.0719 10.8444 42.5134 10.8438 44.0072V46.4989C10.8438 48.0481 11.3258 49.5593 12.225 50.8214C16.4012 56.6822 23.2371 59.5829 32.4996 59.5829C41.7621 59.5829 48.6006 56.6795 52.785 50.8214C53.6883 49.558 54.1741 48.0439 54.1744 46.4908V44.0045C54.1744 42.3893 53.5331 40.8402 52.3915 39.6975C51.2498 38.5549 49.7013 37.9122 48.086 37.9108H41.9788C41.9792 39.9281 41.336 41.8929 40.1428 43.5195C38.9496 45.1461 37.2686 46.3496 35.3443 46.955C33.4199 47.5604 31.3527 47.5361 29.4431 46.8856C27.5336 46.2352 25.8813 44.9952 24.7267 43.341ZM43.3329 21.6662C43.3329 20.083 42.9859 18.519 42.3163 17.0844C41.6467 15.6497 40.6708 14.3793 39.4573 13.3624C38.3308 12.4201 37.0245 11.7167 35.6177 11.2949C34.211 10.8731 32.7331 10.7418 31.274 10.9088C29.8149 11.0759 28.405 11.5379 27.13 12.2667C25.855 12.9956 24.7415 13.9761 23.8572 15.1486C22.9728 16.3212 22.3362 17.6613 21.9858 19.0875C21.6355 20.5138 21.5788 21.9964 21.8192 23.4452C22.0596 24.894 22.5921 26.2788 23.3843 27.5155C24.1765 28.7521 25.2119 29.8148 26.4275 30.6389C28.1314 29.2167 30.2802 28.4375 32.4996 28.437C34.8098 28.437 36.9277 29.2631 38.5744 30.6389C40.0404 29.646 41.2407 28.309 42.0703 26.7447C42.8999 25.1805 43.3334 23.4368 43.3329 21.6662Z" fill="#545454"/>
</svg>
