<svg width="62" height="53" viewBox="0 0 62 53" fill="none" xmlns="http://www.w3.org/2000/svg">
<path d="M58.5833 9.25C59.4011 9.25 60.1853 9.57485 60.7636 10.1531C61.3418 10.7313 61.6667 11.5156 61.6667 12.3333C61.6667 13.1511 61.3418 13.9353 60.7636 14.5136C60.1853 15.0918 59.4011 15.4167 58.5833 15.4167V46.25C59.4011 46.25 60.1853 46.5749 60.7636 47.1531C61.3418 47.7313 61.6667 48.5156 61.6667 49.3333C61.6667 50.1511 61.3418 50.9353 60.7636 51.5136C60.1853 52.0918 59.4011 52.4167 58.5833 52.4167H3.08333C2.26558 52.4167 1.48132 52.0918 0.903087 51.5136C0.32485 50.9353 0 50.1511 0 49.3333C0 48.5156 0.32485 47.7313 0.903087 47.1531C1.48132 46.5749 2.26558 46.25 3.08333 46.25V15.4167C2.26558 15.4167 1.48132 15.0918 0.903087 14.5136C0.32485 13.9353 0 13.1511 0 12.3333C0 11.5156 0.32485 10.7313 0.903087 10.1531C1.48132 9.57485 2.26558 9.25 3.08333 9.25H58.5833ZM15.4167 21.5833C14.5989 21.5833 13.8147 21.9082 13.2364 22.4864C12.6582 23.0647 12.3333 23.8489 12.3333 24.6667V46.25H18.5V24.6667C18.5 23.8489 18.1751 23.0647 17.5969 22.4864C17.0187 21.9082 16.2344 21.5833 15.4167 21.5833ZM30.8333 21.5833C30.0156 21.5833 29.2313 21.9082 28.6531 22.4864C28.0749 23.0647 27.75 23.8489 27.75 24.6667V46.25H33.9167V24.6667C33.9167 23.8489 33.5918 23.0647 33.0136 22.4864C32.4353 21.9082 31.6511 21.5833 30.8333 21.5833ZM46.25 21.5833C45.4323 21.5833 44.648 21.9082 44.0698 22.4864C43.4915 23.0647 43.1667 23.8489 43.1667 24.6667V46.25H49.3333V24.6667C49.3333 23.8489 49.0085 23.0647 48.4303 22.4864C47.852 21.9082 47.0678 21.5833 46.25 21.5833ZM49.3333 0C50.1511 0 50.9353 0.324851 51.5136 0.903088C52.0918 1.48133 52.4167 2.26558 52.4167 3.08333C52.4167 3.90108 52.0918 4.68534 51.5136 5.26358C50.9353 5.84182 50.1511 6.16667 49.3333 6.16667H12.3333C11.5156 6.16667 10.7313 5.84182 10.1531 5.26358C9.57485 4.68534 9.25 3.90108 9.25 3.08333C9.25 2.26558 9.57485 1.48133 10.1531 0.903088C10.7313 0.324851 11.5156 0 12.3333 0H49.3333Z" fill="#545454"/>
</svg>
