<svg width="68" height="67" viewBox="0 0 68 67" fill="none" xmlns="http://www.w3.org/2000/svg">
<path d="M32.1426 0.999023C33.2424 0.366757 34.5704 0.337142 35.6807 0.901367L35.8506 1L65.5977 18.29C67.0738 19.1482 67.8058 20.9176 67.3701 22.5947C66.9347 24.2707 65.4431 25.4353 63.751 25.4355H59.001V54.2793L59.1973 54.4297L65.9971 59.6172L65.999 59.6191C66.9453 60.3321 67.5 61.4653 67.5 62.6777C67.4998 64.8003 65.817 66.4997 63.751 66.5H4.25781C2.19156 66.5 0.507978 64.8004 0.507812 62.6777C0.507812 61.4654 1.06268 60.3321 2.00879 59.6191L2.01074 59.6172L8.81055 54.4297L9.00684 54.2793V25.4355H4.25781C2.56361 25.4355 1.06 24.269 0.625 22.5947C0.189248 20.9175 0.921137 19.1482 2.39746 18.29L32.1436 1L32.1426 0.999023ZM14.3818 54.5322H23.8799V25.4355H14.3818V54.5322ZM29.2549 54.5322H38.7539V25.4355H29.2549V54.5322ZM44.1279 54.5322H53.627V25.4355H44.1279V54.5322ZM34.0039 10.3066C32.7416 10.3067 31.5326 10.8165 30.6426 11.7217C29.7529 12.6267 29.2549 13.8526 29.2549 15.1289C29.2549 16.4052 29.7529 17.6311 30.6426 18.5361C31.5326 19.4414 32.7415 19.9511 34.0039 19.9512C35.2663 19.9512 36.4752 19.4414 37.3652 18.5361C38.255 17.6311 38.7539 16.4052 38.7539 15.1289C38.7539 13.8526 38.2549 12.6267 37.3652 11.7217C36.4752 10.8165 35.2662 10.3066 34.0039 10.3066Z" fill="#545454" stroke="black"/>
</svg>
