<svg width="51" height="51" viewBox="0 0 51 51" fill="none" xmlns="http://www.w3.org/2000/svg">
<path fill-rule="evenodd" clip-rule="evenodd" d="M25.4166 2.79262e-10C28.7544 -1.56455e-05 32.0595 0.657393 35.1432 1.93469C38.2269 3.21199 41.0288 5.08416 43.389 7.44432C45.7491 9.80447 47.6213 12.6064 48.8986 15.6901C50.176 18.7738 50.8334 22.0789 50.8334 25.4166C50.8334 39.4539 39.4539 50.8334 25.4166 50.8334C11.3795 50.8334 0 39.4539 0 25.4166C0 11.3795 11.3795 2.79262e-10 25.4166 2.79262e-10ZM27.9584 27.9584H22.875C16.5826 27.9584 11.1804 31.7693 8.85036 37.2094C12.5371 42.379 18.5832 45.75 25.4166 45.75C32.2501 45.75 38.2962 42.379 41.983 37.209C39.653 31.7693 34.2508 27.9584 27.9584 27.9584ZM25.4166 7.625C21.2055 7.625 17.7916 11.0389 17.7916 15.25C17.7916 19.4611 21.2055 22.875 25.4166 22.875C29.6278 22.875 33.0416 19.4611 33.0416 15.25C33.0416 11.0389 29.6279 7.625 25.4166 7.625Z" fill="#37D7D9"/>
</svg>
